<mxfile host="app.diagrams.net" modified="2021-05-30T06:56:50.848Z" agent="5.0 (Windows NT 10.0; Win64; x64) AppleWebKit/537.36 (KHTML, like Gecko) Chrome/90.0.4430.212 Safari/537.36 Edg/90.0.818.66" etag="haxtcYvJeHCh49vDW4iv" version="14.7.2" type="github">
  <diagram id="hjzgPqdLYu3Zeo-4Eoc-" name="Page-1">
    <mxGraphModel dx="1285" dy="802" grid="1" gridSize="10" guides="1" tooltips="1" connect="1" arrows="1" fold="1" page="1" pageScale="1" pageWidth="827" pageHeight="1169" math="0" shadow="0">
      <root>
        <mxCell id="0" />
        <mxCell id="1" parent="0" />
        <mxCell id="5Uaw-8Ha0721ZcOmCHkX-7" value="&lt;h1&gt;&lt;br&gt;&lt;/h1&gt;" style="text;html=1;strokeColor=none;fillColor=none;spacing=5;spacingTop=-20;whiteSpace=wrap;overflow=hidden;rounded=0;" parent="1" vertex="1">
          <mxGeometry x="340" y="740" width="190" height="120" as="geometry" />
        </mxCell>
        <mxCell id="0M44eqdrZ7TKGxf8zqVD-1" value="6" style="rounded=1;whiteSpace=wrap;html=1;" parent="1" vertex="1">
          <mxGeometry x="210" y="1240" width="120" height="60" as="geometry" />
        </mxCell>
        <mxCell id="0M44eqdrZ7TKGxf8zqVD-2" value="7" style="rounded=1;whiteSpace=wrap;html=1;fillColor=#d5e8d4;strokeColor=#82b366;" parent="1" vertex="1">
          <mxGeometry x="370" y="1240" width="120" height="60" as="geometry" />
        </mxCell>
        <mxCell id="0M44eqdrZ7TKGxf8zqVD-3" value="1" style="rounded=1;whiteSpace=wrap;html=1;" parent="1" vertex="1">
          <mxGeometry x="520" y="1240" width="120" height="60" as="geometry" />
        </mxCell>
        <mxCell id="0M44eqdrZ7TKGxf8zqVD-4" value="4" style="rounded=1;whiteSpace=wrap;html=1;" parent="1" vertex="1">
          <mxGeometry x="685" y="1240" width="120" height="60" as="geometry" />
        </mxCell>
        <mxCell id="0M44eqdrZ7TKGxf8zqVD-5" value="9" style="rounded=1;whiteSpace=wrap;html=1;" parent="1" vertex="1">
          <mxGeometry x="850" y="1240" width="120" height="60" as="geometry" />
        </mxCell>
        <mxCell id="0M44eqdrZ7TKGxf8zqVD-6" value="2" style="rounded=1;whiteSpace=wrap;html=1;fillColor=#d5e8d4;strokeColor=#82b366;" parent="1" vertex="1">
          <mxGeometry x="1020" y="1240" width="120" height="60" as="geometry" />
        </mxCell>
        <mxCell id="0M44eqdrZ7TKGxf8zqVD-7" value="8" style="rounded=1;whiteSpace=wrap;html=1;" parent="1" vertex="1">
          <mxGeometry x="1190" y="1240" width="120" height="60" as="geometry" />
        </mxCell>
        <mxCell id="0M44eqdrZ7TKGxf8zqVD-9" value="base&amp;nbsp; = 6" style="text;html=1;align=center;verticalAlign=middle;resizable=0;points=[];autosize=1;strokeColor=none;" parent="1" vertex="1">
          <mxGeometry x="235" y="1160" width="70" height="20" as="geometry" />
        </mxCell>
        <mxCell id="0M44eqdrZ7TKGxf8zqVD-13" value="j" style="text;html=1;align=center;verticalAlign=middle;resizable=0;points=[];autosize=1;strokeColor=none;" parent="1" vertex="1">
          <mxGeometry x="1070" y="1340" width="20" height="20" as="geometry" />
        </mxCell>
        <mxCell id="0M44eqdrZ7TKGxf8zqVD-14" value="i" style="text;html=1;align=center;verticalAlign=middle;resizable=0;points=[];autosize=1;strokeColor=none;" parent="1" vertex="1">
          <mxGeometry x="414" y="1330" width="20" height="20" as="geometry" />
        </mxCell>
        <mxCell id="0M44eqdrZ7TKGxf8zqVD-15" value="" style="endArrow=classic;html=1;" parent="1" edge="1">
          <mxGeometry width="50" height="50" relative="1" as="geometry">
            <mxPoint x="1300" y="1380" as="sourcePoint" />
            <mxPoint x="900" y="1380" as="targetPoint" />
          </mxGeometry>
        </mxCell>
        <mxCell id="0M44eqdrZ7TKGxf8zqVD-16" value="" style="endArrow=classic;html=1;" parent="1" edge="1">
          <mxGeometry width="50" height="50" relative="1" as="geometry">
            <mxPoint x="180" y="1370" as="sourcePoint" />
            <mxPoint x="600" y="1370" as="targetPoint" />
          </mxGeometry>
        </mxCell>
        <mxCell id="0M44eqdrZ7TKGxf8zqVD-18" value="i，从前往后，找到第一比base大的" style="ellipse;whiteSpace=wrap;html=1;" parent="1" vertex="1">
          <mxGeometry x="450" y="1120" width="120" height="80" as="geometry" />
        </mxCell>
        <mxCell id="0M44eqdrZ7TKGxf8zqVD-19" value="i，从前往后，找到第一比base大的" style="ellipse;whiteSpace=wrap;html=1;" parent="1" vertex="1">
          <mxGeometry x="990" y="1120" width="120" height="80" as="geometry" />
        </mxCell>
        <mxCell id="0M44eqdrZ7TKGxf8zqVD-20" value="6" style="rounded=1;whiteSpace=wrap;html=1;" parent="1" vertex="1">
          <mxGeometry x="210" y="1440" width="120" height="60" as="geometry" />
        </mxCell>
        <mxCell id="0M44eqdrZ7TKGxf8zqVD-21" value="2" style="rounded=1;whiteSpace=wrap;html=1;fillColor=#f8cecc;strokeColor=#b85450;" parent="1" vertex="1">
          <mxGeometry x="370" y="1440" width="120" height="60" as="geometry" />
        </mxCell>
        <mxCell id="0M44eqdrZ7TKGxf8zqVD-22" value="1" style="rounded=1;whiteSpace=wrap;html=1;" parent="1" vertex="1">
          <mxGeometry x="520" y="1440" width="120" height="60" as="geometry" />
        </mxCell>
        <mxCell id="0M44eqdrZ7TKGxf8zqVD-23" value="4" style="rounded=1;whiteSpace=wrap;html=1;" parent="1" vertex="1">
          <mxGeometry x="685" y="1440" width="120" height="60" as="geometry" />
        </mxCell>
        <mxCell id="0M44eqdrZ7TKGxf8zqVD-24" value="9" style="rounded=1;whiteSpace=wrap;html=1;" parent="1" vertex="1">
          <mxGeometry x="850" y="1440" width="120" height="60" as="geometry" />
        </mxCell>
        <mxCell id="0M44eqdrZ7TKGxf8zqVD-25" value="7" style="rounded=1;whiteSpace=wrap;html=1;fillColor=#f8cecc;strokeColor=#b85450;" parent="1" vertex="1">
          <mxGeometry x="1020" y="1440" width="120" height="60" as="geometry" />
        </mxCell>
        <mxCell id="0M44eqdrZ7TKGxf8zqVD-26" value="8" style="rounded=1;whiteSpace=wrap;html=1;" parent="1" vertex="1">
          <mxGeometry x="1190" y="1440" width="120" height="60" as="geometry" />
        </mxCell>
        <mxCell id="0M44eqdrZ7TKGxf8zqVD-28" value="j" style="text;html=1;align=center;verticalAlign=middle;resizable=0;points=[];autosize=1;strokeColor=none;" parent="1" vertex="1">
          <mxGeometry x="1070" y="1540" width="20" height="20" as="geometry" />
        </mxCell>
        <mxCell id="0M44eqdrZ7TKGxf8zqVD-29" value="i" style="text;html=1;align=center;verticalAlign=middle;resizable=0;points=[];autosize=1;strokeColor=none;" parent="1" vertex="1">
          <mxGeometry x="414" y="1530" width="20" height="20" as="geometry" />
        </mxCell>
        <mxCell id="0M44eqdrZ7TKGxf8zqVD-30" value="" style="endArrow=classic;html=1;" parent="1" edge="1">
          <mxGeometry width="50" height="50" relative="1" as="geometry">
            <mxPoint x="1300" y="1580" as="sourcePoint" />
            <mxPoint x="900" y="1580" as="targetPoint" />
          </mxGeometry>
        </mxCell>
        <mxCell id="0M44eqdrZ7TKGxf8zqVD-31" value="" style="endArrow=classic;html=1;" parent="1" edge="1">
          <mxGeometry width="50" height="50" relative="1" as="geometry">
            <mxPoint x="180" y="1570" as="sourcePoint" />
            <mxPoint x="600" y="1570" as="targetPoint" />
          </mxGeometry>
        </mxCell>
        <mxCell id="0M44eqdrZ7TKGxf8zqVD-33" value="6" style="rounded=1;whiteSpace=wrap;html=1;fillColor=#d5e8d4;strokeColor=#82b366;" parent="1" vertex="1">
          <mxGeometry x="210" y="1650" width="120" height="60" as="geometry" />
        </mxCell>
        <mxCell id="0M44eqdrZ7TKGxf8zqVD-34" value="2" style="rounded=1;whiteSpace=wrap;html=1;fillColor=#f8cecc;strokeColor=#b85450;" parent="1" vertex="1">
          <mxGeometry x="370" y="1650" width="120" height="60" as="geometry" />
        </mxCell>
        <mxCell id="0M44eqdrZ7TKGxf8zqVD-35" value="1" style="rounded=1;whiteSpace=wrap;html=1;" parent="1" vertex="1">
          <mxGeometry x="520" y="1650" width="120" height="60" as="geometry" />
        </mxCell>
        <mxCell id="0M44eqdrZ7TKGxf8zqVD-36" value="4" style="rounded=1;whiteSpace=wrap;html=1;fillColor=#d5e8d4;strokeColor=#82b366;" parent="1" vertex="1">
          <mxGeometry x="685" y="1650" width="120" height="60" as="geometry" />
        </mxCell>
        <mxCell id="0M44eqdrZ7TKGxf8zqVD-37" value="9" style="rounded=1;whiteSpace=wrap;html=1;" parent="1" vertex="1">
          <mxGeometry x="850" y="1650" width="120" height="60" as="geometry" />
        </mxCell>
        <mxCell id="0M44eqdrZ7TKGxf8zqVD-38" value="7" style="rounded=1;whiteSpace=wrap;html=1;fillColor=#f8cecc;strokeColor=#b85450;" parent="1" vertex="1">
          <mxGeometry x="1020" y="1650" width="120" height="60" as="geometry" />
        </mxCell>
        <mxCell id="0M44eqdrZ7TKGxf8zqVD-39" value="8" style="rounded=1;whiteSpace=wrap;html=1;" parent="1" vertex="1">
          <mxGeometry x="1190" y="1650" width="120" height="60" as="geometry" />
        </mxCell>
        <mxCell id="0M44eqdrZ7TKGxf8zqVD-41" value="j" style="text;html=1;align=center;verticalAlign=middle;resizable=0;points=[];autosize=1;strokeColor=none;" parent="1" vertex="1">
          <mxGeometry x="747.5" y="1990" width="20" height="20" as="geometry" />
        </mxCell>
        <mxCell id="0M44eqdrZ7TKGxf8zqVD-42" value="i" style="text;html=1;align=center;verticalAlign=middle;resizable=0;points=[];autosize=1;strokeColor=none;" parent="1" vertex="1">
          <mxGeometry x="732.5" y="1990" width="20" height="20" as="geometry" />
        </mxCell>
        <mxCell id="0M44eqdrZ7TKGxf8zqVD-43" value="" style="endArrow=classic;html=1;" parent="1" edge="1">
          <mxGeometry width="50" height="50" relative="1" as="geometry">
            <mxPoint x="1300" y="1776" as="sourcePoint" />
            <mxPoint x="900" y="1776" as="targetPoint" />
          </mxGeometry>
        </mxCell>
        <mxCell id="0M44eqdrZ7TKGxf8zqVD-44" value="" style="endArrow=classic;html=1;" parent="1" edge="1">
          <mxGeometry width="50" height="50" relative="1" as="geometry">
            <mxPoint x="180" y="1780" as="sourcePoint" />
            <mxPoint x="600" y="1780" as="targetPoint" />
          </mxGeometry>
        </mxCell>
        <mxCell id="0M44eqdrZ7TKGxf8zqVD-46" value="i和j相遇时停止" style="text;html=1;strokeColor=none;fillColor=none;align=center;verticalAlign=middle;whiteSpace=wrap;rounded=0;" parent="1" vertex="1">
          <mxGeometry x="745" y="1150" width="140" height="20" as="geometry" />
        </mxCell>
        <mxCell id="0M44eqdrZ7TKGxf8zqVD-47" value="4" style="rounded=1;whiteSpace=wrap;html=1;fillColor=#f8cecc;strokeColor=#b85450;" parent="1" vertex="1">
          <mxGeometry x="215" y="1910" width="120" height="60" as="geometry" />
        </mxCell>
        <mxCell id="0M44eqdrZ7TKGxf8zqVD-48" value="2" style="rounded=1;whiteSpace=wrap;html=1;fillColor=#f8cecc;strokeColor=#b85450;" parent="1" vertex="1">
          <mxGeometry x="375" y="1910" width="120" height="60" as="geometry" />
        </mxCell>
        <mxCell id="0M44eqdrZ7TKGxf8zqVD-49" value="1" style="rounded=1;whiteSpace=wrap;html=1;" parent="1" vertex="1">
          <mxGeometry x="525" y="1910" width="120" height="60" as="geometry" />
        </mxCell>
        <mxCell id="0M44eqdrZ7TKGxf8zqVD-50" value="6" style="rounded=1;whiteSpace=wrap;html=1;fillColor=#f8cecc;strokeColor=#b85450;" parent="1" vertex="1">
          <mxGeometry x="690" y="1910" width="120" height="60" as="geometry" />
        </mxCell>
        <mxCell id="0M44eqdrZ7TKGxf8zqVD-51" value="9" style="rounded=1;whiteSpace=wrap;html=1;" parent="1" vertex="1">
          <mxGeometry x="855" y="1910" width="120" height="60" as="geometry" />
        </mxCell>
        <mxCell id="0M44eqdrZ7TKGxf8zqVD-52" value="7" style="rounded=1;whiteSpace=wrap;html=1;fillColor=#f8cecc;strokeColor=#b85450;" parent="1" vertex="1">
          <mxGeometry x="1025" y="1910" width="120" height="60" as="geometry" />
        </mxCell>
        <mxCell id="0M44eqdrZ7TKGxf8zqVD-53" value="8" style="rounded=1;whiteSpace=wrap;html=1;" parent="1" vertex="1">
          <mxGeometry x="1195" y="1910" width="120" height="60" as="geometry" />
        </mxCell>
        <mxCell id="0M44eqdrZ7TKGxf8zqVD-57" value="" style="endArrow=classic;html=1;" parent="1" edge="1">
          <mxGeometry width="50" height="50" relative="1" as="geometry">
            <mxPoint x="1305" y="2040" as="sourcePoint" />
            <mxPoint x="905" y="2040" as="targetPoint" />
          </mxGeometry>
        </mxCell>
        <mxCell id="0M44eqdrZ7TKGxf8zqVD-58" value="" style="endArrow=classic;html=1;" parent="1" edge="1">
          <mxGeometry width="50" height="50" relative="1" as="geometry">
            <mxPoint x="185" y="2040" as="sourcePoint" />
            <mxPoint x="605" y="2040" as="targetPoint" />
          </mxGeometry>
        </mxCell>
        <mxCell id="cJ5mxs0gCXWes3r5AOwQ-2" value="" style="rounded=1;whiteSpace=wrap;html=1;fillColor=none;" vertex="1" parent="1">
          <mxGeometry x="830" y="1820" width="550" height="260" as="geometry" />
        </mxCell>
        <mxCell id="cJ5mxs0gCXWes3r5AOwQ-3" value="" style="rounded=1;whiteSpace=wrap;html=1;fillColor=none;" vertex="1" parent="1">
          <mxGeometry x="180" y="1830" width="485" height="250" as="geometry" />
        </mxCell>
        <mxCell id="cJ5mxs0gCXWes3r5AOwQ-4" value="i,j" style="text;html=1;strokeColor=none;fillColor=none;align=center;verticalAlign=middle;whiteSpace=wrap;rounded=0;" vertex="1" parent="1">
          <mxGeometry x="725" y="1746" width="40" height="20" as="geometry" />
        </mxCell>
      </root>
    </mxGraphModel>
  </diagram>
</mxfile>
